{"title":"Here Comes The Boom 2012 BRRip 720p x264 AAC - PRiSTiNE [P2PDL]","uid":8087511,"size":704353217,"categoryP":"video","categoryS":"hd___movies","magnet":"?xt=urn:btih:35d5401b6ecaa28abbff9e86bfeffbaf9ed1606f&amp;dn=Here+Comes+The+Boom+2012+BRRip+720p+x264+AAC+-+PRiSTiNE+%5BP2PDL%5D&amp;tr=udp%3A%2F%2Ftracker.openbittorrent.com%3A80&amp;tr=udp%3A%2F%2Fopen.demonii.com%3A1337&amp;tr=udp%3A%2F%2Ftracker.coppersurfer.tk%3A6969&amp;tr=udp%3A%2F%2Fexodus.desync.com%3A6969","seeders":2,"leechers":0,"uploader":"Vitamin_X","files":-1,"time":1359645895,"description":"_________________________  Visit us at _________________________\n  &lt;a href=&quot;\nhttp://p2pdl.com&quot; rel=&quot;nofollow&quot; target=&quot;_NEW&quot;&gt;\nhttp://p2pdl.com&lt;/a&gt;  ____________________________ &lt;a href=&quot; http://p2pdl.com&quot; rel=&quot;nofollow&quot; target=&quot;_NEW&quot;&gt; http://p2pdl.com&lt;/a&gt;\n\n &lt;a href=&quot;\nhttp://www.shotpix.com/images/99384456456354998072.jpg&quot; rel=&quot;nofollow&quot; target=&quot;_NEW&quot;&gt;\nhttp://www.shotpix.com/images/99384456456354998072.jpg&lt;/a&gt;\n\n\nHere Comes The Boom 2012 BRRip 720p x264 - PRiSTiNE [P2PDL]\n\t\t\t\t\nGenre: Action | Comedy\nA high school biology teacher looks to become a successful mixed-martial arts fighter in an effort to raise money to prevent extra-curricular activities from being axed at his cash-strapped school.\nDirector: Frank Coraci\nStars:  Kevin James, Salma Hayek, Henry Winkler\nRated: PG for bouts of MMA sports violence, some rude humor and language.\n\nInfo:  &lt;a href=&quot;\nhttp://www.imdb.com/title/tt1648179/&quot; rel=&quot;nofollow&quot; target=&quot;_NEW&quot;&gt;\nhttp://www.imdb.com/title/tt1648179/&lt;/a&gt;\n &lt;a href=&quot;\nhttp://cinemahouse.in/movie/238/Here+Comes+the+Boom&quot; rel=&quot;nofollow&quot; target=&quot;_NEW&quot;&gt;\nhttp://cinemahouse.in/movie/238/Here+Comes+the+Boom&lt;/a&gt;\n\n\n\nGeneral\nFormat                         : MPEG-4\nFormat profile                 : Base Media / Version 2\nCodec ID                       : mp42\nFile size                      : 658 MiB\nDuration                       : 1h 44mn\nOverall bit rate mode          : Variable\nOverall bit rate               : 876 Kbps\nMovie name                     : Here Comes The Boom 2012 BRRip 720p x264 AAC - PRiSTiNE [P2PDL]\n\nSource                         : 720p.BluRay.X264-BLOW(Thanks)\n\nVideo\nFormat                         : AVC\nWidth                          : 1 280 pixels\nHeight                         : 688 pixels\nDisplay aspect ratio           : 1.860\nFrame rate mode                : Variable\nFrame rate                     : 23.976 fps\nStream size                    : 581 MiB (88%)\nWriting library                : x264 core 128\n\nAudio\nFormat                         : AAC\nDuration                       : 1h 44mn\nBit rate mode                  : Variable\nBit rate                       : 96.0 Kbps\nChannel(s)                     : 2 channels\nChannel positions              : Front: L R\nSampling rate                  : 48.0 KHz\nStream size                    : 72.0 MiB (11%)\n\nSubtitle                       : Yes ( English)\n\n\nScreens:\n &lt;a href=&quot;\nhttp://www.shotpix.com/images/23460735789299420786.png&quot; rel=&quot;nofollow&quot; target=&quot;_NEW&quot;&gt;\nhttp://www.shotpix.com/images/23460735789299420786.png&lt;/a&gt; &lt;a href=&quot;\nhttp://www.shotpix.com/images/43369230448672056775.png&quot; rel=&quot;nofollow&quot; target=&quot;_NEW&quot;&gt;\nhttp://www.shotpix.com/images/43369230448672056775.png&lt;/a&gt; &lt;a href=&quot;\nhttp://www.shotpix.com/images/92721678394507516206.png&quot; rel=&quot;nofollow&quot; target=&quot;_NEW&quot;&gt;\nhttp://www.shotpix.com/images/92721678394507516206.png&lt;/a&gt; &lt;a href=&quot;\nhttp://www.shotpix.com/images/14067278708014282762.png&quot; rel=&quot;nofollow&quot; target=&quot;_NEW&quot;&gt;\nhttp://www.shotpix.com/images/14067278708014282762.png&lt;/a&gt; &lt;a href=&quot;\nhttp://www.shotpix.com/images/09971948395010275927.png&quot; rel=&quot;nofollow&quot; target=&quot;_NEW&quot;&gt;\nhttp://www.shotpix.com/images/09971948395010275927.png&lt;/a&gt; &lt;a href=&quot;\nhttp://www.shotpix.com/images/30814451969545233144.png&quot; rel=&quot;nofollow&quot; target=&quot;_NEW&quot;&gt;\nhttp://www.shotpix.com/images/30814451969545233144.png&lt;/a&gt;\n\n\nThumbs:\n &lt;a href=&quot;\nhttp://www.shotpix.com/images/89759348371932241467.jpg&quot; rel=&quot;nofollow&quot; target=&quot;_NEW&quot;&gt;\nhttp://www.shotpix.com/images/89759348371932241467.jpg&lt;/a&gt;\n\n----------------------------------------------------------------------------------------------------\n\n\nRecommend to you to use latest version of VLC player. Install K-Lite Codec Pack or shark007 codecs\nin case of any kind of problem in playback (For non-VLC Media Player users). Alternatively, install\nCore AVC codecs, the fastest decoder that there is coupled with Community Center Codec Pack and play\non Windows Media Player Classic. Check sample to be sure.\nEnjoy!\n\nGreets to: VYTO, a2zRG, MusiK_KinG, Neon, Kuroyukihime, TorDigger, Ash968, StyLishSaLH and staff members at\nExtraTorrent, TPB, H33T, KAT, 1337x, PublicHD, Ahashare, BTScene, SilverTorrent, LimeTorrents, TorrentMafia,\nP2PDL, and all others.\n\nEncoder Notes: Looking For Early Access To Anything You Can Provide DVDScr, R5, DVDR, BluRay, Direct\nAudio, Early Music Releases, Seedboxes, Dedicated Servers anything u can provide, Advance / Promo CDs/\nDVDs. If You Got anything to offer contact me at &quot;&lt;a class=&quot;__cf_email__&quot; href=&quot;/cdn-cgi/l/email-protection&quot; data-cfemail=&quot;5f2f2d381f372a2c37713c3032&quot;&gt;[email&amp;#160;protected]&lt;/a&gt;&lt;script cf-hash='f9e31' type=&quot;text/javascript&quot;&gt;\n/* &lt;![CDATA[ */!function(){try{var t=&quot;currentScript&quot;in document?document.currentScript:function(){for(var t=document.getElementsByTagName(&quot;script&quot;),e=t.length;e--;)if(t[e].getAttribute(&quot;cf-hash&quot;))return t[e]}();if(t&amp;&amp;t.previousSibling){var e,r,n,i,c=t.previousSibling,a=c.getAttribute(&quot;data-cfemail&quot;);if(a){for(e=&quot;&quot;,r=parseInt(a.substr(0,2),16),n=2;a.length-n;n+=2)i=parseInt(a.substr(n,2),16)^r,e+=String.fromCharCode(i);e=document.createTextNode(e),c.parentNode.replaceChild(e,c)}}}catch(u){}}();/* ]]&gt; */&lt;/script&gt;&quot;.\n\nFan Page: www .. com / p2pdl","torrent":{"xt":"urn:btih:35d5401b6ecaa28abbff9e86bfeffbaf9ed1606f","amp;dn":"Here+Comes+The+Boom+2012+BRRip+720p+x264+AAC+-+PRiSTiNE+%5BP2PDL%5D","amp;tr":["udp%3A%2F%2Ftracker.openbittorrent.com%3A80","udp%3A%2F%2Fopen.demonii.com%3A1337","udp%3A%2F%2Ftracker.coppersurfer.tk%3A6969","udp%3A%2F%2Fexodus.desync.com%3A6969"],"infoHash":"35d5401b6ecaa28abbff9e86bfeffbaf9ed1606f","infoHashBuffer":{"type":"Buffer","data":[53,213,64,27,110,202,162,138,187,255,158,134,191,239,251,175,158,209,96,111]},"announce":[],"urlList":[]}}